<svg xmlns="http://www.w3.org/2000/svg" width="474" height="762" fill="none"><path stroke="#D0D5F6" stroke-width="2" d="M300.953 758.201s153.131-32.43 159.437-119.074c6.307-86.643-231.598-17.186-136.357-198 95.241-180.813 181.317-185.289 136.357-298C415.431 30.417 294.704-28.752 154.453 16.002 14.203 60.755 1 348.127 1 348.127"/><path stroke="#D0D5F6" stroke-width="2" d="M258.964 758.201s120.124-28.481 125.072-104.574c4.947-76.094-181.679-15.094-106.967-173.891 74.712-158.796 142.236-162.727 106.967-261.714-35.269-98.986-129.974-150.95-239.995-111.646C34.02 145.681 23.664 398.06 23.664 398.06"/><path stroke="#D0D5F6" stroke-width="2" d="M222.729 760.201s90.905-24.841 94.649-91.208c3.744-66.367-137.487-13.164-80.948-151.664 56.539-138.499 107.638-141.927 80.948-228.261-26.69-86.334-98.359-131.656-181.618-97.376-83.26 34.281-91.096 254.401-91.096 254.401"/></svg>